<svg width="1200" height="800" viewBox="0 0 1200 800" fill="none" xmlns="http://www.w3.org/2000/svg">
  <rect width="1200" height="800" rx="28" fill="url(#paint0_linear)"/>
  <circle cx="180" cy="200" r="80" fill="#FFD2C4"/>
  <circle cx="420" cy="120" r="52" fill="#B9EFEA"/>
  <circle cx="980" cy="180" r="96" fill="#E6F2FF"/>
  <circle cx="940" cy="530" r="130" fill="#D6F3E9"/>
  <circle cx="320" cy="620" r="120" fill="#FFE8D9"/>

  <path d="M180 200L420 120L620 320L940 530L320 620L180 200Z" stroke="#1E4B6E" stroke-width="6" stroke-linecap="round" stroke-linejoin="round" opacity="0.45"/>

  <rect x="505" y="260" width="190" height="120" rx="18" fill="#0E8F8A"/>
  <text x="600" y="313" text-anchor="middle" fill="#FFFFFF" font-family="Arial, sans-serif" font-size="24" font-weight="700">CareFlow</text>
  <text x="600" y="343" text-anchor="middle" fill="#D6FFFA" font-family="Arial, sans-serif" font-size="15">Match and Coordinate</text>

  <rect x="108" y="164" width="140" height="72" rx="14" fill="#FFFFFF"/>
  <text x="178" y="209" text-anchor="middle" fill="#1E4B6E" font-family="Arial, sans-serif" font-size="18" font-weight="700">Donors</text>

  <rect x="342" y="84" width="156" height="72" rx="14" fill="#FFFFFF"/>
  <text x="420" y="129" text-anchor="middle" fill="#1E4B6E" font-family="Arial, sans-serif" font-size="18" font-weight="700">Hospitals</text>

  <rect x="856" y="496" width="170" height="72" rx="14" fill="#FFFFFF"/>
  <text x="941" y="541" text-anchor="middle" fill="#1E4B6E" font-family="Arial, sans-serif" font-size="18" font-weight="700">Recipients</text>

  <rect x="226" y="586" width="188" height="72" rx="14" fill="#FFFFFF"/>
  <text x="320" y="631" text-anchor="middle" fill="#1E4B6E" font-family="Arial, sans-serif" font-size="18" font-weight="700">Administrators</text>

  <defs>
    <linearGradient id="paint0_linear" x1="0" y1="0" x2="1200" y2="800" gradientUnits="userSpaceOnUse">
      <stop stop-color="#F8FCFF"/>
      <stop offset="0.5" stop-color="#FFF6EF"/>
      <stop offset="1" stop-color="#F1FFFB"/>
    </linearGradient>
  </defs>
</svg>
